<?xml version="1.0" standalone="no"?>
<!DOCTYPE svg PUBLIC "-//W3C//DTD SVG 20010904//EN"
 "http://www.w3.org/TR/2001/REC-SVG-20010904/DTD/svg10.dtd">
<svg version="1.0" xmlns="http://www.w3.org/2000/svg"
 width="565.000000pt" height="565.000000pt" viewBox="0 0 565.000000 565.000000"
 preserveAspectRatio="xMidYMid meet">
<metadata>
Created by potrace 1.14, written by Peter Selinger 2001-2017
</metadata>
<g transform="translate(0.000000,565.000000) scale(0.100000,-0.100000)"
fill="#000000" stroke="none">
<path d="M3925 5625 c-30 -29 -34 -95 -10 -152 19 -45 19 -43 -9 -43 -73 0
-301 -99 -436 -188 -97 -65 -196 -155 -232 -211 -22 -36 -28 -57 -28 -101 0
-80 34 -141 148 -262 l96 -103 -60 -6 c-130 -13 -278 -86 -346 -172 -18 -22
-46 -67 -63 -98 -16 -31 -51 -84 -78 -117 -95 -122 -164 -279 -192 -441 -17
-96 -20 -288 -5 -376 10 -57 9 -61 -12 -75 -50 -32 -143 -128 -179 -183 -21
-32 -50 -89 -65 -127 -22 -56 -31 -69 -53 -73 -14 -3 -27 -4 -28 -3 -1 1 27
72 63 157 84 196 174 469 210 629 23 106 27 150 28 285 1 110 -3 176 -13 210
-43 151 -131 248 -270 297 -107 38 -323 34 -487 -7 -205 -53 -352 -204 -413
-424 -30 -106 -44 -247 -39 -386 2 -69 3 -125 1 -125 -1 0 -26 14 -55 31 -145
86 -276 125 -424 128 -214 4 -378 -75 -588 -284 -296 -296 -346 -533 -149
-715 98 -91 241 -158 453 -210 202 -50 450 -84 690 -95 74 -3 167 -8 207 -11
l71 -6 -44 -92 c-24 -52 -44 -100 -44 -108 0 -8 -4 -18 -9 -23 -5 -6 -16 -35
-25 -66 -68 -241 -79 -546 -25 -742 11 -40 22 -83 25 -96 7 -32 85 -201 93
-201 3 0 12 -14 19 -30 12 -26 139 -163 185 -197 34 -26 147 -84 166 -86 12
-1 21 -5 21 -9 0 -3 8 -7 18 -7 9 0 42 -7 72 -15 71 -21 243 -21 349 -1 77 15
218 61 303 98 l37 17 16 -52 c8 -28 15 -58 15 -66 0 -7 21 -73 46 -145 62
-181 112 -366 120 -446 8 -82 18 -101 50 -101 21 0 25 4 19 18 -4 9 -13 60
-21 112 -8 52 -19 118 -25 145 -27 123 -150 477 -181 519 -12 17 -17 31 -11
33 6 2 37 20 69 39 117 71 230 162 332 267 82 85 79 86 106 -28 8 -38 36 -128
62 -200 79 -223 91 -269 104 -393 9 -89 20 -112 52 -112 17 0 19 5 14 26 -4
14 -14 71 -22 127 -8 56 -24 136 -34 178 -29 113 -147 440 -171 472 l-21 29
39 56 c103 153 172 314 189 440 l6 49 66 13 c109 22 227 87 321 180 l81 80 94
0 c416 0 829 278 1170 789 77 115 132 238 180 403 107 368 62 673 -132 914
-42 52 -50 69 -57 120 -17 138 -83 307 -160 410 -148 196 -382 284 -598 225
-43 -12 -100 -32 -126 -46 -63 -32 -155 -116 -188 -173 -15 -25 -28 -41 -30
-36 -2 6 -19 8 -38 6 -43 -5 -43 0 -14 119 25 101 81 210 165 322 114 152 240
251 359 282 56 14 61 14 70 -1 26 -45 70 -84 109 -99 108 -41 207 51 176 164
-21 80 -86 131 -165 131 -70 0 -122 -46 -127 -112 -2 -19 -9 -23 -40 -26 -143
-10 -333 -157 -470 -362 -95 -143 -115 -196 -154 -399 -4 -20 -9 -22 -40 -17
-73 14 -332 -31 -509 -89 -16 -5 -31 7 -74 59 -76 92 -102 142 -108 208 -8 82
27 150 132 253 98 97 205 172 328 230 119 56 195 73 228 52 64 -40 129 -24
149 38 43 130 -137 298 -225 210z"/>
<path d="M3779 1822 c32 -59 98 -357 110 -495 8 -91 21 -131 38 -114 15 15 8
223 -10 307 -35 162 -99 320 -129 320 -15 0 -17 -4 -9 -18z"/>
<path d="M3694 1708 c8 -18 17 -53 21 -78 4 -25 13 -56 20 -70 25 -50 97 -317
108 -403 9 -67 16 -91 29 -98 26 -14 39 -3 29 24 -5 12 -12 51 -16 87 -11 102
-31 182 -91 362 -51 152 -79 208 -104 208 -5 0 -3 -15 4 -32z"/>
<path d="M3425 1271 c8 -17 21 -54 29 -83 8 -29 26 -96 40 -148 33 -125 76
-359 76 -419 0 -46 21 -93 35 -79 4 4 9 53 12 110 6 131 -27 304 -92 480 -52
139 -68 168 -95 168 -19 0 -20 -2 -5 -29z"/>
<path d="M2962 883 c-10 -4 -10 -8 -2 -18 17 -21 87 -271 116 -415 14 -69 28
-163 31 -210 3 -52 11 -95 21 -110 l16 -25 7 25 c4 14 7 71 8 126 2 161 -47
367 -131 556 -30 67 -42 79 -66 71z"/>
</g>
</svg>
